<svg id="Layer_5" enable-background="new 0 0 64 64" height="512" viewBox="0 0 64 64" width="512" xmlns="http://www.w3.org/2000/svg"><g><g><path d="m21 52v4h-10v-4h1 7z" fill="#969faa"/><path d="m50 52v2.77c-2.31.81-4.74 1.23-7.22 1.23h-4.78v-4h2 8z" fill="#969faa"/><path d="m50 54.77c2.56-.88 4.96-2.25 7.05-4.05.54-.46 1.24-.72 1.95-.72.88 0 1.71.38 2.28 1.05.52.6.77 1.38.71 2.18s-.43 1.53-1.04 2.05c-5.05 4.33-11.51 6.72-18.17 6.72h-37.78c-1.65 0-3-1.35-3-3s1.35-3 3-3h6 10 17 4.78c2.48 0 4.91-.42 7.22-1.23z" fill="#ccd1d9"/><path d="m10.98 29.19c-1.83 2.1-2.94 4.83-2.98 7.81v.17 2.83c0 1.38-.56 2.63-1.46 3.54-.91.9-2.16 1.46-3.54 1.46.66-1.99 1-4.07 1-6.16v-9.13c0-1.03.42-1.95 1.09-2.62s1.59-1.09 2.62-1.09c1.04 0 2.02.44 2.71 1.18l.32 1.27c.06.25.14.5.24.74z" fill="#b27946"/><path d="m39.99 43.95c-.27.03-.54.05-.82.05h-20.17v8h-7l-3.46-11.25c-.36-1.16-.54-2.37-.54-3.58v-.17c.04-2.98 1.15-5.71 2.98-7.81.89 2.28 3.09 3.81 5.58 3.81h9.44c2.21 0 4-1.79 4-4v-4h4.59c.55 0 1.09-.14 1.57-.39 3.02 3.18 6.87 5.49 11.14 6.65l2.7.74v2l-2 18h-8v-8z" fill="#cf9e76"/><path d="m50 21.99v.01 6.45l-.7-.19c-4.35-1.19-8.26-3.56-11.3-6.82v-2.44-5.34c0-.22.01-.44.03-.66.16-1.86.97-3.52 2.21-4.76s2.9-2.05 4.76-2.21c.22-.02.44-.03.66-.03 1.49 0 2.91.43 4.13 1.21.07.04.14.08.21.14.89.61 1.66 1.41 2.23 2.37l.77 1.28 5.09 1.13c1.14.25 2.12.89 2.81 1.75.69.87 1.1 1.96 1.1 3.13 0 2.75-2.24 4.99-4.99 4.99h-6.87c-.05 0-.09 0-.14-.01z" fill="#cf9e76"/><path d="m52.23 9.72c-.57-.96-1.34-1.76-2.23-2.37v-.29l6.62-4.78c.25-.18.55-.28.85-.28h.07c.81 0 1.46.65 1.46 1.46 0 .35-.12.69-.35.95l-5.65 6.59z" fill="#ffc729"/><path d="m45 2c-3.04 0-5.79 1.23-7.78 3.22s-3.22 4.74-3.22 7.78v6 3l3.72.93c.18-.42.28-.87.28-1.34v-.15-2.44-5.34c0-.22.01-.44.03-.66.16-1.86.97-3.52 2.21-4.76s2.9-2.05 4.76-2.21c.22-.02.44-.03.66-.03 1.49 0 2.91.43 4.13 1.21l.21-.15v-.06c0-2.76-2.24-5-5-5z" fill="#fcd770"/><path d="m38 21.44c3.04 3.26 6.95 5.63 11.3 6.82l.7.19v3.55l-2.7-.74c-4.27-1.16-8.12-3.47-11.14-6.65.31-.16.59-.36.84-.61.31-.31.55-.67.72-1.07.18-.42.28-.87.28-1.34z" fill="#fcd770"/><path d="m10.74 28.45-.32-1.27-2.3-9.21c-.26-1.03-.1-2.11.45-3.03.55-.91 1.42-1.56 2.46-1.82.3-.08.64-.12.97-.12 1.84 0 3.44 1.25 3.88 3.03l1.87 7.46c.22.89 1.02 1.51 1.94 1.51h5.53 2.68 2.1v4c0 2.21-1.79 4-4 4h-9.44c-2.49 0-4.69-1.53-5.58-3.81-.1-.24-.18-.49-.24-.74z" fill="#969faa"/></g><g><path d="m59 49c-.952 0-1.876.341-2.603.962-1.627 1.395-3.455 2.502-5.397 3.332v-2.294h-1.883l1.877-16.89.006-11.11h6.006c3.306 0 5.994-2.689 5.994-5.994 0-2.831-1.93-5.237-4.693-5.851l-3.463-.769 4.565-5.325c.381-.446.591-1.015.591-1.601 0-1.356-1.104-2.46-2.527-2.46-.521 0-1.019.161-1.441.466l-5.284 3.818c-.741-2.474-3.036-4.284-5.748-4.284-6.617 0-12 5.383-12 12v9.781l3.003.751c-.41.3-.899.469-1.417.469h-6.685-2.681-5.534c-.46 0-.858-.312-.971-.757l-1.864-7.456c-.558-2.23-2.551-3.789-4.847-3.789-.414 0-.837.053-1.214.15-1.299.324-2.392 1.135-3.077 2.28-.688 1.146-.887 2.49-.562 3.783l1.739 6.958c-.385-.101-.778-.17-1.182-.17-2.596 0-4.708 2.112-4.708 4.708v9.13c0 1.99-.319 3.957-.948 5.846l-.44 1.316h1.388c2.213 0 4.146-1.208 5.186-2.996l2.46 7.996h-.646v4h-5c-2.206 0-4 1.794-4 4s1.794 4 4 4h37.78c6.9 0 13.585-2.473 18.821-6.962.812-.695 1.305-1.666 1.387-2.732s-.256-2.1-.949-2.906c-.76-.889-1.868-1.4-3.039-1.4zm-16.22 6h-3.78v-2h10v1.033c-2.001.624-4.093.967-6.22.967zm-22.78-4v-6h19v6h-2v4h-15v-4zm24-45.836c-1.382.27-2.645.871-3.708 1.714l-1.616-1.616c1.482-1.214 3.316-2.011 5.324-2.211zm-5.122 3.128c-.843 1.063-1.444 2.326-1.714 3.708h-2.113c.2-2.008.998-3.842 2.211-5.324zm-1.878 5.708v4h-2v-4zm1.584 9.43c2.954 2.731 6.518 4.718 10.416 5.787v1.474l-1.438-.392c-3.709-1.012-7.094-2.937-9.868-5.58.004-.004.009-.007.014-.011.374-.375.66-.811.876-1.278zm22.416-6.424c0 2.202-1.792 3.994-3.994 3.994h-6.865c-1.005 0-1.938-.5-2.496-1.336l-.812-1.219-1.664 1.109.812 1.219c.714 1.07 1.797 1.805 3.02 2.091v4.26c-3.803-1.141-7.241-3.234-10-6.094v-7.368c-.001-3.673 2.987-6.662 6.661-6.662 2.327 0 4.516 1.239 5.712 3.234l.989 1.648 5.51 1.224c1.841.411 3.127 2.014 3.127 3.9zm-3.798-13.919c.079-.057.173-.087.338-.087.254 0 .46.207.46.46 0 .109-.039.216-.11.299l-4.746 5.537-.055-.091c-.446-.743-1.007-1.395-1.639-1.962zm-8.475 2.491c-.865-.33-1.784-.518-2.727-.556v-1.88c1.255.326 2.268 1.239 2.727 2.436zm-13.727 14.422h2v1.586c0 .044-.01.086-.013.13l-1.987-.497zm-25.57-4.543c.411-.688 1.066-1.173 1.854-1.37.221-.057.477-.089.721-.089 1.377 0 2.572.935 2.907 2.274l1.864 7.456c.334 1.338 1.532 2.272 2.911 2.272h5.534 2.681 1.098v3c0 1.654-1.346 3-3 3h-9.438c-2.299 0-4.294-1.558-4.852-3.788l-2.618-10.485c-.195-.776-.075-1.582.338-2.27zm-2.43 24.543c0 1.712-1.081 3.176-2.597 3.746.397-1.604.597-3.249.597-4.908v-9.13c0-1.493 1.215-2.708 2.708-2.708.677 0 1.323.268 1.82.722l.244.976c.025.1.069.189.098.287-1.812 2.279-2.825 5.094-2.862 8.015h-.008zm2.494.455c-.328-1.066-.494-2.171-.494-3.285 0-2.197.657-4.328 1.853-6.143 1.282 1.818 3.378 2.973 5.709 2.973h9.438c2.757 0 5-2.243 5-5v-3h3.586c.46 0 .903-.09 1.33-.225 3.085 3.072 6.911 5.304 11.12 6.453l1.964.536v1.181l-1.895 17.055h-6.105v-6.223c1.392-.332 2.671-1.033 3.707-2.07l-1.414-1.414c-1.101 1.101-2.564 1.707-4.121 1.707h-20.344c-1.557 0-3.021-.606-4.121-1.707l-1.414 1.414c1.281 1.281 2.929 2.062 4.707 2.248v6.045h-5.261zm2.506 12.545h8v2h-8zm48.301 1.52c-4.875 4.179-11.098 6.48-17.521 6.48h-37.78c-1.103 0-2-.897-2-2s.897-2 2-2h37.78c5.469 0 10.767-1.96 14.917-5.518.812-.693 2.132-.589 2.823.219.347.403.515.918.474 1.451s-.287 1.019-.693 1.368z"/><circle cx="48" cy="11" r="1"/></g></g></svg>